<svg xmlns="http://www.w3.org/2000/svg" width="250" height="250" viewBox="0 0 250 250"><defs><style>.a{fill:#fff;}</style></defs><path class="a" d="M237.567,169.678a9.773,9.773,0,0,1-9.633-11.435A208.023,208.023,0,0,0,230.967,125a205.143,205.143,0,0,0-33.09-109.911A9.766,9.766,0,1,1,214.252,4.444,224.656,224.656,0,0,1,250.5,124.9v.195a227.431,227.431,0,0,1-3.321,36.484,9.768,9.768,0,0,1-9.612,8.1Zm-23.315,75.878a224.069,224.069,0,0,0,19.33-36.831,9.766,9.766,0,0,0-18.064-7.429,204.418,204.418,0,0,1-17.642,33.613,9.766,9.766,0,1,0,16.376,10.647ZM166.8,220.1a174.318,174.318,0,0,0,29.5-94.977q0-.129,0-.257A174.308,174.308,0,0,0,166.8,29.9a9.766,9.766,0,0,0-16.227,10.87A154.821,154.821,0,0,1,176.769,125a154.821,154.821,0,0,1-26.193,84.232A9.766,9.766,0,0,0,166.8,220.1ZM123.8,179.348a16.9,16.9,0,0,0,11.128-10.307,119.6,119.6,0,0,0,7.67-44.233,120.63,120.63,0,0,0-21.953-66.8,9.766,9.766,0,0,0-16.019,11.177,101.149,101.149,0,0,1,18.443,56,99.5,99.5,0,0,1-5.211,33.541L28.27,89.857A14.886,14.886,0,0,0,4.906,97.469,111.761,111.761,0,0,0,.5,128.416c0,23.115,13.217,43.77,13.777,44.638a9.766,9.766,0,0,0,16.4-10.6c-.1-.166-10.647-16.8-10.647-34.033a92.393,92.393,0,0,1,1.948-18.759l86.972,66.866a16.625,16.625,0,0,0,10.167,3.489,16.874,16.874,0,0,0,4.677-.664Zm0,0" transform="translate(-0.5 0)"/></svg>