<svg xmlns="http://www.w3.org/2000/svg" width="75" height="75" viewBox="0 0 75 75"><defs><style>.a{fill:#0a2488;}</style></defs><path class="a" d="M71.62,50.9a2.932,2.932,0,0,1-2.89-3.43,62.409,62.409,0,0,0,.91-9.973A61.543,61.543,0,0,0,59.713,4.527a2.93,2.93,0,1,1,4.913-3.193A67.4,67.4,0,0,1,75.5,37.471v.058a68.229,68.229,0,0,1-1,10.945A2.93,2.93,0,0,1,71.62,50.9ZM64.625,73.667a67.221,67.221,0,0,0,5.8-11.049,2.93,2.93,0,0,0-5.419-2.229,61.326,61.326,0,0,1-5.293,10.084,2.93,2.93,0,1,0,4.913,3.194ZM50.391,66.031a52.3,52.3,0,0,0,8.85-28.493q0-.039,0-.077a52.292,52.292,0,0,0-8.85-28.492,2.93,2.93,0,0,0-4.868,3.261A46.446,46.446,0,0,1,53.38,37.5a46.446,46.446,0,0,1-7.858,25.27,2.93,2.93,0,0,0,4.868,3.262ZM37.488,53.8a5.068,5.068,0,0,0,3.338-3.092,35.879,35.879,0,0,0,2.3-13.27A36.189,36.189,0,0,0,36.542,17.4a2.93,2.93,0,0,0-4.806,3.353,30.345,30.345,0,0,1,5.533,16.8,29.848,29.848,0,0,1-1.563,10.062L8.831,26.957a4.466,4.466,0,0,0-7.009,2.284A33.528,33.528,0,0,0,.5,38.525c0,6.935,3.965,13.131,4.133,13.391a2.93,2.93,0,0,0,4.921-3.181c-.031-.05-3.194-5.039-3.194-10.21A27.718,27.718,0,0,1,6.944,32.9l26.092,20.06A4.987,4.987,0,0,0,36.085,54a5.062,5.062,0,0,0,1.4-.2Zm0,0" transform="translate(-0.5 0)"/></svg>